# xmcd
#
# Track frame offsets: 
#        150
#        26162
#        43082
#        67937
#        80952
#        99085
#        125120
#        143570
#        162892
#        182147
#        194725
#        209015
#        229322
#
# Disc length: 3264 seconds
#
# Revision: 11
# Processed by: cddbd v1.5.2PL0 Copyright (c) Steve Scherf et al.
# Submitted via: ExactAudioCopy v0.99pb4
#
DISCID=c20cbe0d
DTITLE=Glenn Kaiser - Time Will Tell
DYEAR=1999
DGENRE=Blues
TTITLE0=Memory
TTITLE1=Postmodern, Existenial, Ivy League Blues 
TTITLE2=Ya Don't Say
TTITLE3=Contact
TTITLE4=Good Hope and Philadelphia
TTITLE5=Drive Me Down To Shonkin
TTITLE6=Walking On Serpents
TTITLE7=Deliver
TTITLE8=Clear Blue Sky
TTITLE9=Follywood Green
TTITLE10=Plant The Seed Again
TTITLE11=One More Step
TTITLE12=My Strength, My Song
EXTD=YEAR: 1999
EXTT0=
EXTT1=
EXTT2=
EXTT3=
EXTT4=
EXTT5=
EXTT6=
EXTT7=
EXTT8=
EXTT9=
EXTT10=
EXTT11=
EXTT12=
PLAYORDER=
